<svg id="Capa_1" viewBox="0 0 511.934 511.934" xmlns="http://www.w3.org/2000/svg"><path d="m382.692 188.858c-13.873 2.22-22.118 1.543-29.319 22.118s-20.575 9.002-28.29 10.159c-7.716 1.157-31.891 13.502-28.29-7.587s-22.118-20.061-35.492-4.115c-13.374 15.945-11.316 19.032-25.719 25.204-14.402 6.173-23.147-15.431-32.92-3.601-9.773 11.831-14.402 18.517-20.06 12.345-5.658-6.173-14.917.13-26.233-3.021-11.316-3.152-29.319 4.308-27.776-19.225s-3.601-37.935-24.176-21.99c-20.575 15.946-15.946 34.463-45.265 35.492s-16.46 24.69-16.46 31.891-17.489 26.159-5.144 48.571-16.974 22.927-22.118 22.412c-5.144-.514-16.46 16.46 3.086 27.262s12.859 28.29 20.575 29.834c7.716 1.543 8.744-24.176 19.546-23.147s0-23.661 14.403-26.233c14.402-2.572 22.632.146 24.69 6.503 2.057 6.357 14.917 21.788 29.319 18.187s-1.029-14.917 21.089-13.888 31.377 2.058 32.406 12.345c1.029 10.288 20.575-1.543 25.719 17.489s23.147 23.147 34.463 23.147 15.945-14.402 34.977-7.716c19.032 6.687 13.374-13.374 19.546-13.374s16.974 8.744 34.977 4.629 45.265 13.374 46.808-12.345 3.086-42.179 16.46-34.463 13.374 15.946 34.463 12.345 14.402-7.569 21.089-6.357c6.687 1.213 8.744 8.928 4.629 22.302s14.917 27.262 21.604-4.115-3.601-36.006-10.287-49.38c-6.687-13.374-12.345-21.089-20.575-19.032-8.23 2.058-25.204 10.802-23.147-4.629s1.119-27.305 10.892-33.991c9.773-6.687 5.365-24.555 4.336-35.871s12.033-15.523 18.206-13.98 7.242 11.88 9.077 23.661c3.001 19.265 23.158 25.826 34.988 28.398 11.831 2.572 3.257-27.369-7.545-40.743s-22.118-21.604-16.46-35.492 2.057-35.492-4.629-40.121c-6.687-4.629-17.489.514-6.173-27.262s-15.945-20.575-21.089-3.086-23.147 16.46-29.834 31.891c-6.686 15.433-4.628 34.464-30.347 38.579z" fill="#e8899e"/><path d="m206.262 385.863c5.144 19.032 23.147 23.147 34.463 23.147 7.983 0 12.644-7.161 21.377-9.035-45.859-26.399-66.908-109.479-62.317-165.438-7.864 9.575-12.112 14.378-17.184 8.845-5.658-6.173-14.917.13-26.233-3.021-11.316-3.152-29.319 4.308-27.776-19.225s-3.601-37.935-24.176-21.99c-20.575 15.946-15.945 34.463-45.265 35.492-29.319 1.029-16.46 24.69-16.46 31.891s-17.489 26.159-5.144 48.571-16.974 22.927-22.118 22.412c-5.144-.514-16.46 16.46 3.086 27.262s12.859 28.29 20.575 29.834c7.716 1.543 8.744-24.176 19.546-23.147s0-23.661 14.403-26.233c14.402-2.572 22.632.146 24.69 6.503s14.917 21.788 29.319 18.187-1.029-14.917 21.089-13.888 31.377 2.058 32.406 12.345c1.03 10.287 20.576-1.544 25.719 17.488z" fill="#de5c6e"/><g fill="#fcf2d0"><path d="m261.3 209.433c-.736.877-1.417 1.709-2.065 2.511h37.769c2.038-19.412-22.68-18.038-35.704-2.511z"/><path d="m128.82 211.944c-.412-17.742-6.679-26.535-24.403-12.798-5.433 4.211-9.102 8.599-12.109 12.798z"/><path d="m474.765 188.858c5.658-13.888 2.057-35.492-4.629-40.121-6.687-4.629-17.489.514-6.173-27.262s-15.945-20.575-21.089-3.086-23.147 16.46-29.834 31.891-4.629 34.463-30.348 38.578c-13.873 2.22-22.118 1.543-29.319 22.118-.119.339-.243.646-.365.968h127.607c-5.966-7.294-9.563-13.971-5.85-23.086z"/></g><path d="m325.082 221.136c-7.716 1.157-31.891 13.502-28.29-7.587.094-.553.157-1.082.212-1.604h-37.769c-11.125 13.777-10.043 16.86-23.654 22.693-14.402 6.172-23.147-15.431-32.92-3.601-9.773 11.831-14.402 18.518-20.06 12.345s-14.917.13-26.233-3.021c-11.316-3.152-29.319 4.308-27.776-19.225.214-3.261.294-6.338.227-9.191h-36.511c-8.381 11.705-11.579 21.936-33.156 22.693-29.319 1.029-16.46 24.69-16.46 31.891s-17.489 26.159-5.144 48.571c.45.817.839 1.602 1.181 2.362h424.686c-6.026-11.458-11.423-17.85-18.998-15.956-8.23 2.058-25.204 10.802-23.147-4.629s1.119-27.305 10.892-33.991c9.773-6.687 5.365-24.555 4.336-35.871s12.033-15.523 18.206-13.98c6.172 1.543 7.241 11.88 9.077 23.661 3.001 19.265 23.158 25.826 34.988 28.398 11.831 2.572 3.257-27.369-7.545-40.743-3.713-4.597-7.486-8.586-10.61-12.406h-127.606c-7.28 19.206-20.337 8.053-27.926 9.191z" fill="#8eafe2"/><path d="m199.785 234.537c-7.864 9.575-12.112 14.378-17.184 8.845-5.658-6.173-14.917.13-26.233-3.021-11.316-3.152-29.319 4.308-27.776-19.225.214-3.261.294-6.338.227-9.191h-36.511c-8.381 11.705-11.579 21.936-33.156 22.693-29.319 1.029-16.46 24.69-16.46 31.891s-17.489 26.159-5.144 48.571c.45.817.839 1.602 1.181 2.362h169.944c-7.931-28.119-10.918-58.172-8.888-82.925z" fill="#6a96d7"/><ellipse cx="194.766" cy="296.304" fill="#fff" rx="22.585" ry="17.986"/><ellipse cx="317.185" cy="296.304" fill="#fff" rx="22.585" ry="17.986"/><path d="m41.237 266.597c.566 0 1.141-.065 1.716-.199 4.033-.944 6.537-4.979 5.593-9.012-.705-3.011-2.171-9.276-.111-11.97 1.468-1.92 5.368-3.085 10.98-3.282 22.285-.782 29.119-11.08 35.727-21.039 3.541-5.336 7.202-10.853 13.869-16.02 6.565-5.087 9.379-5.182 9.835-5.156.414.44 3.346 4.198 2.263 20.727-.569 8.67 1.105 15.041 5.117 19.474 5.613 6.203 13.789 6.482 20.358 6.707 2.956.101 5.748.197 7.772.761 6.379 1.776 11.976 1.215 16.472.764 2.77-.278 5.636-.565 6.245.1 2.996 3.268 6.417 4.854 10.17 4.77 7.077-.194 11.872-6.041 19.131-14.89.664-.809 1.353-1.649 2.069-2.517.393-.476.677-.728.837-.852 1.036.232 3.336 1.63 4.893 2.577 5.545 3.37 13.925 8.464 24.362 3.992 11.487-4.922 14.458-8.571 20.084-16.356 2.036-2.817 4.57-6.324 8.428-10.922 6.793-8.1 16.623-10.455 20.68-8.579.642.297 2.596 1.201 1.672 6.612-1.321 7.734.17 13.555 4.43 17.299 7.382 6.487 18.891 2.953 27.295.372 1.922-.59 4.101-1.259 5.053-1.402.728-.065 2.915.468 4.366.826 7.271 1.796 22.401 5.527 29.909-15.927 5.067-14.477 8.776-15.022 19.789-16.639 1.169-.172 2.38-.35 3.636-.551 24.424-3.908 28.987-19.9 32.653-32.751 1.041-3.649 2.024-7.095 3.392-10.25 2.232-5.153 6.357-7.798 11.578-11.146 6.706-4.301 15.053-9.653 18.569-21.611 1.687-5.734 6.517-9.021 9.113-9.867-.076 1.463-.561 4.071-2.165 8.007-5.642 13.847-6.802 21.492-4.139 27.269 2.439 5.29 7.32 6.908 10.237 7.874 1.125.373 2.188.725 2.702 1.079 0 .001.046.039.13.133 2.752 3.095 7.493 3.371 10.589.617 3.094-2.753 3.37-7.494.616-10.588-.855-.962-1.781-1.79-2.748-2.459-2.336-1.617-4.685-2.395-6.571-3.02-.408-.135-.902-.299-1.311-.449.023-1.479.584-5.465 4.385-14.796 4.383-10.756 4.37-18.895-.035-24.19-3.26-3.919-8.406-5.487-14.117-4.307-7.968 1.647-17.766 9.207-21.077 20.465-1.938 6.586-6.273 9.368-12.276 13.217-6.184 3.966-13.193 8.461-17.244 17.809-1.759 4.058-2.925 8.146-4.053 12.099-3.377 11.837-5.607 19.657-20.598 22.055-1.19.191-2.338.359-3.446.521-12.188 1.79-23.702 3.48-31.768 26.525-3.002 8.58-5.125 8.056-12.157 6.319-3.251-.802-6.612-1.631-10.166-1.1-2.078.312-4.476 1.047-7.25 1.899-2.824.867-10.015 3.071-12.746 2.643-.069-.556-.101-1.631.21-3.451 1.789-10.474-2.009-18.978-10.157-22.75-11.286-5.225-28.188.289-38.473 12.553-4.204 5.013-6.914 8.762-9.091 11.775-4.591 6.351-5.681 7.86-13.836 11.355-3.035 1.301-5.457.142-10.661-3.022-5.147-3.129-15.854-9.639-25.086 1.538-.729.881-1.428 1.735-2.103 2.557-2.548 3.106-5.588 6.813-7.529 8.601-5.543-5.233-12.373-4.548-17.916-3.993-3.749.376-7.288.731-10.952-.289-3.748-1.044-7.579-1.175-11.284-1.302-3.936-.134-8.397-.287-9.749-1.781-.511-.565-1.659-2.517-1.271-8.427.804-12.261.621-29.227-10.206-34.981-10.418-5.535-22.183 3.577-26.048 6.572-8.615 6.677-13.363 13.833-17.179 19.583-5.918 8.918-9.177 13.83-23.755 14.341-10.475.368-18 3.45-22.369 9.161-6.366 8.324-3.808 19.25-2.579 24.502.81 3.459 3.892 5.793 7.297 5.793zm255.285 3.79v7.976c0 4.142 3.357 7.5 7.5 7.5s7.5-3.358 7.5-7.5v-7.976c0-4.142-3.357-7.5-7.5-7.5-4.142 0-7.5 3.357-7.5 7.5zm-88.593-7.5c-4.142 0-7.5 3.358-7.5 7.5v7.976c0 4.142 3.358 7.5 7.5 7.5s7.5-3.358 7.5-7.5v-7.976c0-4.143-3.358-7.5-7.5-7.5zm55.059 10.901c-1.771 2.033-4.327 3.199-7.013 3.199s-5.242-1.166-7.013-3.199c-2.723-3.123-7.458-3.447-10.582-.727-3.123 2.722-3.448 7.459-.727 10.582 4.621 5.302 11.299 8.343 18.322 8.343 7.022 0 13.7-3.041 18.321-8.343 2.722-3.123 2.396-7.86-.727-10.582-3.121-2.721-7.859-2.396-10.581.727zm234.072-54.15c-2.111-2.614-4.181-4.971-6.182-7.251-9.085-10.349-11.8-14.237-9.169-20.696.599-1.466 1.127-3.038 1.57-4.67 1.085-3.997-1.275-8.118-5.272-9.204-3.994-1.083-8.118 1.274-9.203 5.272-.284 1.045-.615 2.033-.984 2.939-6.353 15.591 2.868 26.096 11.785 36.254 1.901 2.166 3.868 4.406 5.785 6.78 6.598 8.168 10.986 21.525 11.566 27.89-15.515-4.033-24.177-11.227-25.764-21.412l-.415-2.705c-1.828-12.018-3.719-24.445-14.254-27.078-6.619-1.653-15.156.544-20.765 5.346-4.928 4.221-7.318 10.113-6.729 16.588.183 2.018.454 4.135.741 6.376 1.003 7.822 2.518 19.642-1.845 22.626-10.791 7.384-11.949 18.867-13.176 31.024-.265 2.631-.539 5.351-.915 8.166-1.069 8.025 1.812 12.284 4.418 14.444 6.565 5.44 15.978 2.329 23.54-.173 1.683-.556 3.271-1.082 4.442-1.375 2.717-.679 6.551 4.118 12.048 15.11 1.607 3.216 3.393 5.974 4.968 8.408 5.202 8.037 9.31 14.384 4.692 36.055-2.014 9.449-4.939 12.54-5.877 13.045-.714-.465-2.012-2.6-1.224-5.161 3.33-10.821 3.25-19.216-.239-24.953-2.273-3.736-5.807-6.134-10.221-6.935-4.456-.808-7.263-.192-10.355 2.275-.782.623-2.86 2.281-13.335 4.069-11.758 2.008-14.032.142-19.532-4.365-2.498-2.047-5.607-4.596-9.92-7.083-7.307-4.214-12.607-3.072-15.769-1.371-9.258 4.983-10.563 19.161-11.926 41.881-.192 3.198-.878 5.428-1.932 6.28-2.386 1.93-9.986.772-16.094-.157-7.249-1.105-15.465-2.355-22.967-.64-10.205 2.333-17.575-.322-23.499-2.456-3.52-1.268-6.56-2.362-9.808-2.362-7.836 0-10.002 7.61-10.927 10.86-.322 1.132-.907 3.188-1.398 3.844-.37.057-1.743.145-4.734-.907-15.176-5.332-24.242.355-30.241 4.117-3.232 2.028-5.162 3.175-7.223 3.175-6.754 0-22.929-1.715-27.223-17.604-4.306-15.933-16.718-17.145-23.386-17.796-.731-.071-1.612-.157-2.349-.258-2.678-15.611-18.916-16.368-39.281-17.315-13.455-.628-19.646 2.997-21.392 12.505-.06.328-.136.742-.204 1.029-.26.132-.771.347-1.662.569-9.461 2.364-19.19-9.593-20.364-13.221-1.998-6.176-8.961-15.895-33.143-11.576-13.463 2.404-14.335 15.562-14.803 22.631-.069 1.04-.158 2.386-.285 3.5-9.115.793-13.327 10.325-16.176 17.146-2.012-6.888-6.045-16.132-18.313-22.912-3.166-1.75-6.979-4.635-7.162-8.444-.098-2.063.843-3.831 1.566-4.7 5.528.14 21.878-.364 28.69-10.683 2.858-4.33 4.984-11.817-1.121-22.901-3.05-5.537-4.078-11.236-3.143-17.423.619-4.096-2.2-7.918-6.295-8.537-4.093-.615-7.917 2.2-8.536 6.295-1.426 9.436.201 18.487 4.836 26.902 1.887 3.426 2.538 6.192 1.742 7.399-2.112 3.199-12.053 4.378-16.544 3.931-7.035-.701-13.085 6.141-15.205 12.938-1.289 4.134-4.095 18.397 13.917 28.352 8.927 4.933 10.491 11.131 12.004 17.125 1.202 4.761 3.018 11.956 10.727 13.499 9.596 1.919 13.721-7.963 16.447-14.503 1.066-2.559 2.996-7.19 4.368-8.492 4.024.239 6.75-1.286 8.346-2.644 4.366-3.714 4.759-9.633 5.104-14.856.486-7.332 1.127-8.616 2.474-8.856 10.864-1.94 15.724-.153 16.235 1.428 3.325 10.275 19.852 27.758 38.273 23.154 11.02-2.754 12.344-9.973 12.981-13.442.003-.015.005-.03.008-.045.945-.164 2.748-.332 5.933-.185 9.5.442 17.725.924 22.168 2.35 2.892.928 2.96 1.607 3.124 3.249 1.05 10.501 10.862 11.459 15.578 11.919 6.233.608 8.823 1.083 10.363 6.78 7.195 26.621 33.74 28.69 41.704 28.69 6.477 0 11.31-3.032 15.194-5.468 5.383-3.377 8.939-5.608 17.297-2.671 6.738 2.366 12.188 2.392 16.661.076 5.545-2.871 7.492-8.336 8.592-12.087.519.182 1.035.368 1.504.537 6.942 2.5 17.433 6.276 31.924 2.966 4.725-1.079 11.151-.101 17.368.846 9.957 1.515 20.25 3.081 27.781-3.007 4.499-3.637 7.014-9.373 7.474-17.046.528-8.807 1.483-24.725 3.889-29.086.33.135.772.345 1.337.671 3.25 1.875 5.618 3.815 7.909 5.693 7.893 6.468 14.35 10.486 31.564 7.549 11.159-1.905 15.837-4.068 18.735-6.064.461 1.236.831 5.005-1.447 12.411-2.163 7.03-.354 14.827 4.611 19.864 4.1 4.158 9.705 5.718 15.005 4.171 5.495-1.604 12.815-7.137 16.49-24.381 5.911-27.738-.535-37.699-6.77-47.331-1.495-2.311-2.908-4.494-4.144-6.966-5.024-10.05-13.438-26.866-29.102-22.954-1.712.428-3.559 1.039-5.515 1.685-2.104.696-5.975 1.976-8.426 2.34.013-.122.028-.251.047-.388.407-3.053.693-5.895.971-8.644 1.138-11.28 1.898-16.849 6.722-20.149 11.936-8.167 9.808-24.781 8.253-36.913-.27-2.101-.523-4.085-.683-5.828-.148-1.633.315-2.781 1.549-3.838 2.151-1.842 5.471-2.41 6.984-2.25 1.497 2.029 2.664 9.699 3.447 14.846l.423 2.758c1.891 12.136 10.505 27.985 40.806 34.571 5.235 1.141 9.941-.742 12.587-5.03 6.953-11.261-4.272-37.317-12.699-47.751z"/></svg>
